<?xml version="1.0" encoding="UTF-8"?>
<svg xmlns="http://www.w3.org/2000/svg" xmlns:xlink="http://www.w3.org/1999/xlink" version="1.1" viewBox="0 0 1812 60">
  <defs>
    <style>
      .cls-1, .cls-2, .cls-3 {
        fill: none;
      }

      .cls-2 {
        stroke-width: .8px;
      }

      .cls-2, .cls-4, .cls-3 {
        stroke-miterlimit: 10;
      }

      .cls-2, .cls-3 {
        stroke: #00ff50;
      }

      .cls-5 {
        display: none;
      }

      .cls-4 {
        fill: #5fb7ff;
        stroke: #5fb7ff;
        stroke-width: 2px;
      }

      .cls-6 {
        clip-path: url(#clippath);
      }
    </style>
    <clipPath id="clippath">
      <rect class="cls-1" width="1812" height="60"/>
    </clipPath>
  </defs>
  <!-- Generator: Adobe Illustrator 28.6.0, SVG Export Plug-In . SVG Version: 1.2.0 Build 709)  -->
  <g>
    <g id="_レイヤー_1" data-name="レイヤー_1" class="cls-5">
      <g class="cls-6">
        <path class="cls-3" d="M82,19.4v39.1h-10.9V1h14.4l16.9,42.7L118.7,1h14.4v57.4h-10.9V18.4l-15.4,40h-9.3l-15.4-39h0Z"/>
        <path class="cls-3" d="M149.3,1h37.6v9h-26.1v14.4h21.8v9h-21.8v16h26.1v9h-37.6V1Z"/>
        <path class="cls-3" d="M211.3,19.4v39.1h-10.9V1h14.4l16.9,42.7L248,1h14.4v57.4h-10.9V18.4l-15.4,40h-9.3l-15.4-39h0Z"/>
        <path class="cls-3" d="M277,1h22.6c12.6,0,18.9,5.2,18.9,13.7s-3.7,11.1-9.3,12.9c7.5,1.4,12.6,6.2,12.6,14.2s-8.1,16.6-22.2,16.6h-22.6V1ZM299.2,24.5c5.2,0,8-3,8-7.4s-2.8-7.1-8.3-7.1h-10.5v14.4h10.8ZM300.2,49.4c6.3,0,9.7-3.1,9.7-8.2s-3.8-8-9.4-8h-12v16.2h11.7Z"/>
        <path class="cls-3" d="M333.1,1h37.6v9h-26.1v14.4h21.8v9h-21.8v16h26.1v9h-37.6V1Z"/>
        <path class="cls-3" d="M384.2,1h21.8c13.3,0,21.6,6.6,21.6,17.7s-4.8,13.8-11.7,15.9l14.5,23.8h-12.6l-11.9-20.7h-10.2v20.7h-11.5V1ZM404.5,28.7c7.4,0,11.2-3.5,11.2-9.3s-3.8-9.3-11.8-9.3h-8.3v18.7h8.9Z"/>
        <path class="cls-2" d="M45.1,26.3H0v5.3h45.1v-5.3Z"/>
        <path class="cls-3" d="M533.8,19.4v39.1h-10.9V1h14.4l16.9,42.7,16.4-42.7h14.4v57.4h-10.9V18.4l-15.4,40h-9.3l-15.4-39h0Z"/>
        <path class="cls-3" d="M601.1,1h37.6v9h-26.1v14.4h21.8v9h-21.8v16h26.1v9h-37.6V1Z"/>
        <path class="cls-3" d="M663.1,19.4v39.1h-10.9V1h14.4l16.9,42.7,16.4-42.7h14.4v57.4h-10.9V18.4l-15.4,40h-9.3l-15.4-39h0Z"/>
        <path class="cls-3" d="M728.8,1h22.6c12.6,0,18.9,5.2,18.9,13.7s-3.7,11.1-9.3,12.9c7.5,1.4,12.6,6.2,12.6,14.2s-8.1,16.6-22.2,16.6h-22.6V1ZM751.1,24.5c5.2,0,8-3,8-7.4s-2.8-7.1-8.3-7.1h-10.5v14.4h10.8ZM752,49.4c6.3,0,9.7-3.1,9.7-8.2s-3.8-8-9.4-8h-12v16.2h11.7Z"/>
        <path class="cls-3" d="M784.9,1h37.6v9h-26.1v14.4h21.8v9h-21.8v16h26.1v9h-37.6V1Z"/>
        <path class="cls-3" d="M836,1h21.8c13.3,0,21.6,6.6,21.6,17.7s-4.8,13.8-11.7,15.9l14.5,23.8h-12.6l-11.9-20.7h-10.2v20.7h-11.5V1h0ZM856.3,28.7c7.4,0,11.2-3.5,11.2-9.3s-3.8-9.3-11.8-9.3h-8.3v18.7h8.9Z"/>
        <path class="cls-2" d="M496.9,26.3h-45.1v5.3h45.1v-5.3Z"/>
        <path class="cls-3" d="M985.6,19.4v39.1h-10.9V1h14.4l16.9,42.7,16.4-42.7h14.4v57.4h-10.9V18.4l-15.4,40h-9.4l-15.4-39h0Z"/>
        <path class="cls-3" d="M1053,1h37.6v9h-26.1v14.4h21.8v9h-21.8v16h26.1v9h-37.6V1Z"/>
        <path class="cls-3" d="M1114.9,19.4v39.1h-10.9V1h14.4l16.9,42.7,16.4-42.7h14.4v57.4h-10.9V18.4l-15.4,40h-9.3l-15.4-39h0Z"/>
        <path class="cls-3" d="M1180.6,1h22.6c12.6,0,18.9,5.2,18.9,13.7s-3.7,11.1-9.3,12.9c7.5,1.4,12.6,6.2,12.6,14.2s-8.1,16.6-22.2,16.6h-22.6V1ZM1202.9,24.5c5.2,0,8-3,8-7.4s-2.8-7.1-8.3-7.1h-10.5v14.4h10.8ZM1203.9,49.4c6.3,0,9.7-3.1,9.7-8.2s-3.8-8-9.4-8h-12v16.2h11.7Z"/>
        <path class="cls-3" d="M1236.8,1h37.6v9h-26.1v14.4h21.8v9h-21.8v16h26.1v9h-37.6V1Z"/>
        <path class="cls-3" d="M1287.8,1h21.8c13.3,0,21.6,6.6,21.6,17.7s-4.8,13.8-11.7,15.9l14.5,23.8h-12.6l-11.9-20.7h-10.2v20.7h-11.5V1h0ZM1308.1,28.7c7.4,0,11.2-3.5,11.2-9.3s-3.8-9.3-11.8-9.3h-8.3v18.7h8.9Z"/>
        <path class="cls-2" d="M948.8,26.3h-45.1v5.3h45.1v-5.3Z"/>
        <path class="cls-3" d="M1437.4,19.4v39.1h-10.9V1h14.4l16.9,42.7,16.4-42.7h14.4v57.4h-10.9V18.4l-15.4,40h-9.3l-15.4-39h0Z"/>
        <path class="cls-3" d="M1504.8,1h37.6v9h-26.1v14.4h21.8v9h-21.8v16h26.1v9h-37.6V1Z"/>
        <path class="cls-3" d="M1566.7,19.4v39.1h-10.9V1h14.4l16.9,42.7,16.4-42.7h14.4v57.4h-10.9V18.4l-15.4,40h-9.3l-15.4-39h0Z"/>
        <path class="cls-3" d="M1632.4,1h22.6c12.6,0,18.9,5.2,18.9,13.7s-3.7,11.1-9.3,12.9c7.5,1.4,12.6,6.2,12.6,14.2s-8.1,16.6-22.2,16.6h-22.6V1ZM1654.7,24.5c5.2,0,8-3,8-7.4s-2.8-7.1-8.3-7.1h-10.5v14.4h10.8ZM1655.7,49.4c6.3,0,9.7-3.1,9.7-8.2s-3.8-8-9.4-8h-12v16.2h11.7Z"/>
        <path class="cls-3" d="M1688.6,1h37.6v9h-26.1v14.4h21.8v9h-21.8v16h26.1v9h-37.6V1Z"/>
        <path class="cls-3" d="M1739.6,1h21.8c13.3,0,21.6,6.6,21.6,17.7s-4.8,13.8-11.7,15.9l14.5,23.8h-12.6l-11.9-20.7h-10.2v20.7h-11.5V1h0ZM1760,28.7c7.4,0,11.2-3.5,11.2-9.3s-3.8-9.3-11.8-9.3h-8.3v18.7h8.9Z"/>
        <path class="cls-2" d="M1400.6,26.3h-45.1v5.3h45.1v-5.3Z"/>
      </g>
    </g>
    <g id="_レイヤー_2" data-name="レイヤー_2">
      <path class="cls-4" d="M3,27.7h21v4.7H3v-4.7Z"/>
      <path class="cls-4" d="M66.4,3.9h24.6c4.9,0,8.8,1.3,11.8,3.9s4.5,6.3,4.5,11-1.3,7.6-4,10.6-6.8,4.5-12.3,4.5h-17.2v22.1h-7.5V3.9ZM95.3,11.1c-1.6-.7-3.9-1.1-6.7-1.1h-14.7v18.1h14.7c3.3,0,6-.7,8.1-2s3.1-3.7,3.1-7.1-1.5-6.4-4.5-7.8Z"/>
      <path class="cls-4" d="M121.9,3.9h25c4.1,0,7.5.6,10.2,1.7,5.1,2.2,7.6,6.3,7.6,12.3s-.7,5.7-2,7.7c-1.4,2-3.3,3.6-5.7,4.8,2.1.8,3.8,1.9,4.9,3.3s1.7,3.5,1.8,6.6l.3,7c0,2,.2,3.5.5,4.4.5,1.7,1.2,2.7,2.4,3.2v1.2h-9.1c-.3-.5-.5-1-.6-1.7s-.3-2.1-.4-4.1l-.4-8.7c-.2-3.4-1.5-5.7-3.9-6.9-1.4-.6-3.6-1-6.5-1h-16.5v22.4h-7.5V3.9ZM146.1,27.8c3.4,0,6.1-.7,8.1-2,2-1.3,3-3.7,3-7.2s-1.4-6.3-4.2-7.6c-1.5-.7-3.5-1.1-5.9-1.1h-17.7v17.8h16.8Z"/>
      <path class="cls-4" d="M227.2,11.3c3.6,4.6,5.5,10.5,5.5,17.7s-2.1,14.3-6.3,19.4c-4.9,6.1-11.9,9.1-21,9.1s-15.1-2.7-20-8c-4.3-5.1-6.5-11.6-6.5-19.4s1.8-13.1,5.5-18.1c4.7-6.4,11.8-9.7,21.1-9.7s16.9,3,21.6,8.9ZM220.7,44.6c2.9-4.5,4.4-9.6,4.4-15.4s-1.7-11.1-5.1-14.8c-3.4-3.7-8-5.6-13.9-5.6s-10.3,1.9-13.9,5.6c-3.6,3.7-5.4,9.2-5.4,16.4s1.5,10.7,4.6,14.6c3.1,4,8.1,6,15,6s11.3-2.2,14.3-6.7Z"/>
      <path class="cls-4" d="M248.4,3.9h38.2v6.4h-30.7v15.9h27v6.2h-27v23.7h-7.5V3.9Z"/>
      <path class="cls-4" d="M300.8,3.9h7.5v52.2h-7.5V3.9Z"/>
      <path class="cls-4" d="M326.5,3.9h7.5v46h27.6v6.2h-35.1V3.9Z"/>
      <path class="cls-4" d="M375.2,3.9h40v6.4h-32.7v15.9h30.2v6h-30.2v17.7h33.2v6.2h-40.5V3.9Z"/>
      <path class="cls-4" d="M459.1,27.7h21v4.7h-21v-4.7Z"/>
      <path class="cls-4" d="M522.5,3.9h24.6c4.9,0,8.8,1.3,11.8,3.9s4.5,6.3,4.5,11-1.3,7.6-4,10.6-6.8,4.5-12.3,4.5h-17.2v22.1h-7.5V3.9ZM551.4,11.1c-1.6-.7-3.9-1.1-6.7-1.1h-14.7v18.1h14.7c3.3,0,6-.7,8.1-2s3.1-3.7,3.1-7.1-1.5-6.4-4.5-7.8Z"/>
      <path class="cls-4" d="M578.1,3.9h25c4.1,0,7.5.6,10.2,1.7,5.1,2.2,7.6,6.3,7.6,12.3s-.7,5.7-2,7.7c-1.4,2-3.3,3.6-5.7,4.8,2.1.8,3.8,1.9,4.9,3.3s1.7,3.5,1.8,6.6l.3,7c0,2,.2,3.5.5,4.4.5,1.7,1.2,2.7,2.4,3.2v1.2h-9.1c-.3-.5-.5-1-.6-1.7s-.3-2.1-.4-4.1l-.4-8.7c-.2-3.4-1.5-5.7-3.9-6.9-1.4-.6-3.6-1-6.5-1h-16.5v22.4h-7.5V3.9ZM602.3,27.8c3.4,0,6.1-.7,8.1-2,2-1.3,3-3.7,3-7.2s-1.4-6.3-4.2-7.6c-1.5-.7-3.5-1.1-5.9-1.1h-17.7v17.8h16.8Z"/>
      <path class="cls-4" d="M683.4,11.3c3.6,4.6,5.5,10.5,5.5,17.7s-2.1,14.3-6.3,19.4c-4.9,6.1-11.9,9.1-21,9.1s-15.1-2.7-20-8c-4.3-5.1-6.5-11.6-6.5-19.4s1.8-13.1,5.5-18.1c4.7-6.4,11.8-9.7,21.1-9.7s16.9,3,21.6,8.9ZM676.8,44.6c2.9-4.5,4.4-9.6,4.4-15.4s-1.7-11.1-5.1-14.8c-3.4-3.7-8-5.6-13.9-5.6s-10.3,1.9-13.9,5.6c-3.6,3.7-5.4,9.2-5.4,16.4s1.5,10.7,4.6,14.6c3.1,4,8.1,6,15,6s11.3-2.2,14.3-6.7Z"/>
      <path class="cls-4" d="M704.5,3.9h38.2v6.4h-30.7v15.9h27v6.2h-27v23.7h-7.5V3.9Z"/>
      <path class="cls-4" d="M757,3.9h7.5v52.2h-7.5V3.9Z"/>
      <path class="cls-4" d="M782.6,3.9h7.5v46h27.6v6.2h-35.1V3.9Z"/>
      <path class="cls-4" d="M831.4,3.9h40v6.4h-32.7v15.9h30.2v6h-30.2v17.7h33.2v6.2h-40.5V3.9Z"/>
      <path class="cls-4" d="M915.3,27.7h21v4.7h-21v-4.7Z"/>
      <path class="cls-4" d="M978.7,3.9h24.6c4.9,0,8.8,1.3,11.8,3.9s4.5,6.3,4.5,11-1.3,7.6-4,10.6c-2.7,3-6.8,4.5-12.3,4.5h-17.2v22.1h-7.5V3.9ZM1007.6,11.1c-1.6-.7-3.9-1.1-6.7-1.1h-14.7v18.1h14.7c3.3,0,6-.7,8.1-2s3.1-3.7,3.1-7.1-1.5-6.4-4.5-7.8Z"/>
      <path class="cls-4" d="M1034.2,3.9h25c4.1,0,7.5.6,10.2,1.7,5.1,2.2,7.6,6.3,7.6,12.3s-.7,5.7-2,7.7c-1.4,2-3.3,3.6-5.7,4.8,2.1.8,3.8,1.9,4.9,3.3s1.7,3.5,1.8,6.6l.3,7c0,2,.2,3.5.5,4.4.5,1.7,1.2,2.7,2.4,3.2v1.2h-9.1c-.3-.5-.5-1-.6-1.7s-.3-2.1-.4-4.1l-.4-8.7c-.2-3.4-1.5-5.7-3.9-6.9-1.4-.6-3.6-1-6.5-1h-16.5v22.4h-7.5V3.9ZM1058.4,27.8c3.4,0,6.1-.7,8.1-2,2-1.3,3-3.7,3-7.2s-1.4-6.3-4.2-7.6c-1.5-.7-3.5-1.1-5.9-1.1h-17.7v17.8h16.8Z"/>
      <path class="cls-4" d="M1139.5,11.3c3.6,4.6,5.5,10.5,5.5,17.7s-2.1,14.3-6.3,19.4c-4.9,6.1-11.9,9.1-21,9.1s-15.1-2.7-20-8c-4.3-5.1-6.5-11.6-6.5-19.4s1.8-13.1,5.5-18.1c4.7-6.4,11.8-9.7,21.1-9.7s16.9,3,21.6,8.9ZM1133,44.6c2.9-4.5,4.4-9.6,4.4-15.4s-1.7-11.1-5.1-14.8c-3.4-3.7-8-5.6-13.9-5.6s-10.3,1.9-13.9,5.6c-3.6,3.7-5.4,9.2-5.4,16.4s1.5,10.7,4.6,14.6c3.1,4,8.1,6,15,6s11.3-2.2,14.3-6.7Z"/>
      <path class="cls-4" d="M1160.7,3.9h38.2v6.4h-30.7v15.9h27v6.2h-27v23.7h-7.5V3.9Z"/>
      <path class="cls-4" d="M1213.1,3.9h7.5v52.2h-7.5V3.9Z"/>
      <path class="cls-4" d="M1238.8,3.9h7.5v46h27.6v6.2h-35.1V3.9Z"/>
      <path class="cls-4" d="M1287.5,3.9h40v6.4h-32.7v15.9h30.2v6h-30.2v17.7h33.2v6.2h-40.5V3.9Z"/>
      <path class="cls-4" d="M1371.4,27.7h21v4.7h-21v-4.7Z"/>
      <path class="cls-4" d="M1434.8,3.9h24.6c4.9,0,8.8,1.3,11.8,3.9,3,2.6,4.5,6.3,4.5,11s-1.3,7.6-4,10.6c-2.7,3-6.8,4.5-12.3,4.5h-17.2v22.1h-7.5V3.9ZM1463.7,11.1c-1.6-.7-3.9-1.1-6.7-1.1h-14.7v18.1h14.7c3.3,0,6-.7,8.1-2s3.1-3.7,3.1-7.1-1.5-6.4-4.5-7.8Z"/>
      <path class="cls-4" d="M1490.3,3.9h25c4.1,0,7.5.6,10.2,1.7,5.1,2.2,7.6,6.3,7.6,12.3s-.7,5.7-2,7.7-3.3,3.6-5.7,4.8c2.1.8,3.8,1.9,4.9,3.3s1.7,3.5,1.8,6.6l.3,7c0,2,.3,3.5.5,4.4.5,1.7,1.3,2.7,2.4,3.2v1.2h-9.1c-.2-.5-.4-1-.6-1.7-.2-.7-.3-2.1-.4-4.1l-.5-8.7c-.2-3.4-1.5-5.7-3.9-6.9-1.4-.6-3.6-1-6.5-1h-16.5v22.4h-7.5V3.9ZM1514.6,27.8c3.4,0,6.1-.7,8.1-2,2-1.3,3-3.7,3-7.2s-1.4-6.3-4.2-7.6c-1.5-.7-3.5-1.1-5.9-1.1h-17.7v17.8h16.8Z"/>
      <path class="cls-4" d="M1595.7,11.3c3.6,4.6,5.5,10.5,5.5,17.7s-2.1,14.3-6.3,19.4c-4.9,6.1-11.9,9.1-21,9.1s-15.1-2.7-20-8c-4.3-5.1-6.5-11.6-6.5-19.4s1.8-13.1,5.5-18.1c4.7-6.4,11.8-9.7,21.1-9.7s16.9,3,21.6,8.9ZM1589.1,44.6c2.9-4.5,4.4-9.6,4.4-15.4s-1.7-11.1-5.1-14.8c-3.4-3.7-8-5.6-13.9-5.6s-10.3,1.9-13.9,5.6c-3.6,3.7-5.4,9.2-5.4,16.4s1.5,10.7,4.6,14.6c3.1,4,8.1,6,15,6s11.3-2.2,14.3-6.7Z"/>
      <path class="cls-4" d="M1616.8,3.9h38.2v6.4h-30.7v15.9h27v6.2h-27v23.7h-7.5V3.9Z"/>
      <path class="cls-4" d="M1669.3,3.9h7.5v52.2h-7.5V3.9Z"/>
      <path class="cls-4" d="M1694.9,3.9h7.5v46h27.6v6.2h-35.1V3.9Z"/>
      <path class="cls-4" d="M1743.7,3.9h40v6.4h-32.7v15.9h30.2v6h-30.2v17.7h33.2v6.2h-40.5V3.9Z"/>
    </g>
  </g>
</svg>